<svg width="32" height="33" viewBox="0 0 32 33" fill="none" xmlns="http://www.w3.org/2000/svg">
<path d="M20.6667 13.8333L18.0001 16.5H20.0001C20.0001 18.7066 18.2067 20.5 16.0001 20.5C15.3267 20.5 14.6867 20.3333 14.1334 20.0333L13.1601 21.0066C13.9801 21.5266 14.9534 21.8333 16.0001 21.8333C18.9467 21.8333 21.3334 19.4466 21.3334 16.5H23.3334L20.6667 13.8333ZM12.0001 16.5C12.0001 14.2933 13.7934 12.5 16.0001 12.5C16.6734 12.5 17.3134 12.6666 17.8667 12.9666L18.8401 11.9933C18.0201 11.4733 17.0467 11.1666 16.0001 11.1666C13.0534 11.1666 10.6667 13.5533 10.6667 16.5H8.66675L11.3334 19.1666L14.0001 16.5H12.0001Z" fill="#C0C0C0"/>
</svg>
