<svg width="11" height="11" viewBox="0 0 11 11" fill="none" xmlns="http://www.w3.org/2000/svg">
<path d="M2.768 10.376C2.672 10.376 2.592 10.344 2.528 10.28C2.464 10.216 2.43733 10.136 2.448 10.04L2.736 8.104H1.152C1.04533 8.104 0.96 8.072 0.896 8.008C0.832 7.944 0.8 7.85867 0.8 7.752V7.208C0.8 7.10133 0.832 7.016 0.896 6.952C0.96 6.888 1.04533 6.856 1.152 6.856H2.928L3.344 4.04H1.568C1.46133 4.04 1.376 4.008 1.312 3.944C1.248 3.88 1.216 3.79467 1.216 3.688V3.144C1.216 3.03733 1.248 2.952 1.312 2.888C1.376 2.824 1.46133 2.792 1.568 2.792H3.536L3.824 0.856C3.84533 0.770666 3.88267 0.696 3.936 0.632C3.98933 0.557333 4.06933 0.52 4.176 0.52H4.768C4.864 0.52 4.944 0.551999 5.008 0.615999C5.072 0.68 5.09867 0.76 5.088 0.856L4.8 2.792H7.168L7.456 0.856C7.47733 0.770666 7.51467 0.696 7.568 0.632C7.62133 0.557333 7.70133 0.52 7.808 0.52H8.4C8.496 0.52 8.576 0.551999 8.64 0.615999C8.704 0.68 8.73067 0.76 8.72 0.856L8.432 2.792H9.984C10.0907 2.792 10.176 2.824 10.24 2.888C10.3147 2.952 10.352 3.03733 10.352 3.144V3.688C10.352 3.79467 10.3147 3.88 10.24 3.944C10.176 4.008 10.0907 4.04 9.984 4.04H8.256L7.84 6.856H9.568C9.67467 6.856 9.76 6.888 9.824 6.952C9.89867 7.016 9.936 7.10133 9.936 7.208V7.752C9.936 7.85867 9.89867 7.944 9.824 8.008C9.76 8.072 9.67467 8.104 9.568 8.104H7.648L7.36 10.04C7.328 10.264 7.20533 10.376 6.992 10.376H6.4C6.304 10.376 6.224 10.344 6.16 10.28C6.096 10.216 6.06933 10.136 6.08 10.04L6.368 8.104H4.016L3.728 10.04C3.696 10.264 3.57333 10.376 3.36 10.376H2.768ZM4.208 6.856H6.56L6.976 4.04H4.624L4.208 6.856Z" fill="#777777"/>
</svg>
